<svg width="512" height="512" viewBox="0 0 512 512" xmlns="http://www.w3.org/2000/svg">
  <!-- 背景 -->
  <rect width="512" height="512" fill="#f8f8f8"/>
  
  <!-- 人物のシルエット（ピクセルアート風） -->
  <!-- キャップ -->
  <rect x="180" y="80" width="152" height="60" fill="#2a2a2a"/>
  <rect x="160" y="100" width="192" height="40" fill="#2a2a2a"/>
  
  <!-- サングラス -->
  <rect x="200" y="160" width="60" height="30" fill="#1a1a1a"/>
  <rect x="280" y="160" width="60" height="30" fill="#1a1a1a"/>
  <rect x="260" y="170" width="20" height="10" fill="#8b4513"/>
  
  <!-- 鼻 -->
  <rect x="250" y="200" width="12" height="8" fill="#d4a574"/>
  <rect x="252" y="208" width="8" height="4" fill="#c49660"/>
  
  <!-- 口 -->
  <rect x="240" y="220" width="32" height="4" fill="#8b4513"/>
  
  <!-- 顔の輪郭 -->
  <rect x="180" y="140" width="152" height="120" fill="#d4a574"/>
  
  <!-- 耳 -->
  <rect x="160" y="180" width="20" height="40" fill="#d4a574"/>
  <rect x="332" y="180" width="20" height="40" fill="#d4a574"/>
  
  <!-- 髪（キャップから見える部分） -->
  <rect x="180" y="140" width="152" height="20" fill="#1a1a1a"/>
  <rect x="160" y="160" width="20" height="20" fill="#1a1a1a"/>
  <rect x="332" y="160" width="20" height="20" fill="#1a1a1a"/>
  
  <!-- 首・服装 -->
  <rect x="200" y="260" width="112" height="80" fill="#2a2a2a"/>
  
  <!-- ピクセルアート風の影とハイライト -->
  <!-- キャップの影 -->
  <rect x="180" y="80" width="152" height="4" fill="#1a1a1a"/>
  <rect x="160" y="100" width="192" height="4" fill="#1a1a1a"/>
  
  <!-- 顔の影 -->
  <rect x="180" y="140" width="4" height="120" fill="#c49660"/>
  <rect x="328" y="140" width="4" height="120" fill="#c49660"/>
  <rect x="180" y="140" width="152" height="4" fill="#c49660"/>
  <rect x="180" y="256" width="152" height="4" fill="#c49660"/>
  
  <!-- サングラスのハイライト -->
  <rect x="210" y="170" width="8" height="4" fill="#333333"/>
  <rect x="290" y="170" width="8" height="4" fill="#333333"/>
  
  <!-- 服装の影 -->
  <rect x="200" y="260" width="4" height="80" fill="#1a1a1a"/>
  <rect x="308" y="260" width="4" height="80" fill="#1a1a1a"/>
  <rect x="200" y="260" width="112" height="4" fill="#1a1a1a"/>
  <rect x="200" y="336" width="112" height="4" fill="#1a1a1a"/>
</svg>
